# Blender 4.2.3 LTS
# www.blender.org
mtllib Computer Desk.mtl
o Computer__OPEN_DESK
v -0.053379 0.700360 0.238235
v 0.053379 0.700360 0.238235
v -0.053379 0.690154 0.238235
v 0.053379 0.690154 0.238235
v -0.053379 0.700360 0.239932
v 0.053379 0.700360 0.239932
v -0.053379 0.690154 0.242235
v 0.053379 0.690154 0.242235
v -0.331463 0.734095 0.232610
v 0.331463 0.734095 0.232610
v -0.331463 0.656418 0.232610
v 0.331463 0.656418 0.232610
v -0.331463 0.734095 0.238610
v 0.331463 0.734095 0.238610
v -0.331463 0.656418 0.238610
v 0.331463 0.656418 0.238610
v -0.321560 0.718920 0.222707
v 0.321560 0.718920 0.222707
v -0.331463 0.656418 0.232610
v 0.331463 0.656418 0.232610
v -0.321560 0.718920 -0.231269
v -0.331463 0.656418 -0.241172
v 0.331463 0.656418 -0.241172
v 0.321560 0.718920 -0.231269
v -0.331463 0.718920 0.232610
v 0.331463 0.718920 0.232610
v -0.331463 0.718920 -0.241172
v 0.331463 0.718920 -0.241172
v -0.321560 0.664445 0.222707
v 0.321560 0.664445 0.222707
v -0.321560 0.664445 -0.231269
v 0.321560 0.664445 -0.231269
vn -0.0000 0.2201 0.9755
vn -1.0000 -0.0000 -0.0000
vn 1.0000 -0.0000 -0.0000
vn -0.0000 1.0000 -0.0000
vn -0.0000 -1.0000 -0.0000
vn -0.0000 -0.0000 -1.0000
vn -0.0000 -0.0000 1.0000
vt 0.817518 0.961887
vt 0.783435 0.961887
vt 0.783435 0.614100
vt 0.817518 0.614100
vt 0.818735 0.967280
vt 0.786303 0.974599
vt 0.786303 0.601389
vt 0.818735 0.608708
vt 0.823046 0.614100
vt 0.823046 0.961887
vt 0.770404 0.961887
vt 0.770404 0.614100
vt 0.917278 0.976598
vt 0.917278 0.347862
vt 0.990948 0.347862
vt 0.990948 0.976598
vt 0.911587 0.976598
vt 0.837916 0.976598
vt 0.837916 0.347862
vt 0.911587 0.347862
vt 0.911587 0.982289
vt 0.837916 0.982289
vt 0.837916 0.342172
vt 0.911587 0.342172
vt 0.832226 0.976598
vt 0.832226 0.347862
vt 0.197046 0.716886
vt 0.197046 0.690973
vt 0.461773 0.690973
vt 0.461773 0.716886
vt 0.197046 0.965995
vt 0.461773 0.965995
vt 0.461773 0.991909
vt 0.197046 0.991909
vt 0.489534 0.745278
vt 0.514872 0.745278
vt 0.514872 0.937603
vt 0.489534 0.937603
vt 0.483857 0.745278
vt 0.483857 0.937603
vt 0.461773 0.937603
vt 0.461773 0.745278
vt 0.143947 0.745278
vt 0.169285 0.745278
vt 0.169285 0.937603
vt 0.143947 0.937603
vt 0.197046 0.498648
vt 0.461773 0.498648
vt 0.461773 0.722693
vt 0.197046 0.722693
vt 0.197046 0.960189
vt 0.461773 0.960189
vt 0.174962 0.745278
vt 0.174962 0.937603
vt 0.197046 0.745278
vt 0.197046 0.937603
s 1
usemtl FUNITURE_037_MAT
f 5/1/1 7/2/1 8/3/1 6/4/1
f 1/5/2 3/6/2 7/2/2 5/1/2
f 4/7/3 2/8/3 6/4/3 8/3/3
f 2/9/4 1/10/4 5/1/4 6/4/4
f 3/11/5 4/12/5 8/3/5 7/2/5
f 9/13/6 10/14/6 12/15/6 11/16/6
f 13/17/7 15/18/7 16/19/7 14/20/7
f 9/21/2 11/22/2 15/18/2 13/17/2
f 12/23/3 10/24/3 14/20/3 16/19/3
f 10/14/4 9/13/4 13/17/4 14/20/4
f 11/25/5 12/26/5 16/19/5 15/18/5
f 25/27/7 19/28/7 20/29/7 26/30/7
f 27/31/6 28/32/6 23/33/6 22/34/6
f 26/35/3 20/36/3 23/37/3 28/38/3
f 18/39/2 24/40/2 32/41/2 30/42/2
f 19/43/2 25/44/2 27/45/2 22/46/2
f 20/29/5 19/28/5 22/47/5 23/48/5
f 18/49/4 17/50/4 25/27/4 26/30/4
f 21/51/4 24/52/4 28/32/4 27/31/4
f 24/40/4 18/39/4 26/35/4 28/38/4
f 17/53/4 21/54/4 27/45/4 25/44/4
f 29/55/4 30/42/4 32/41/4 31/56/4
f 17/50/6 18/49/6 30/42/6 29/55/6
f 21/54/3 17/53/3 29/55/3 31/56/3
f 24/52/7 21/51/7 31/56/7 32/41/7
o Computer_Desk
v -0.580181 0.000073 -0.228909
v -0.580181 0.021103 -0.228909
v -0.580181 0.000073 -0.249899
v -0.580181 0.021103 -0.249899
v 0.579938 0.000073 -0.228909
v 0.579938 0.021103 -0.228909
v 0.579938 0.000073 -0.249899
v 0.579938 0.021103 -0.249899
v -0.580181 0.620136 -0.228909
v -0.580181 0.641166 -0.228909
v -0.580181 0.620136 -0.249899
v -0.580181 0.641166 -0.249899
v 0.579938 0.620136 -0.228909
v 0.579938 0.641166 -0.228909
v 0.579938 0.620136 -0.249899
v 0.579938 0.641166 -0.249899
v -0.580181 0.620136 0.249877
v -0.580181 0.641166 0.249877
v -0.580181 0.620136 0.228887
v -0.580181 0.641166 0.228887
v 0.579938 0.620136 0.249877
v 0.579938 0.641166 0.249877
v 0.579938 0.620136 0.228887
v 0.579938 0.641166 0.228887
v -0.599775 0.021022 0.228883
v -0.579769 0.021022 0.228883
v -0.599775 0.021022 -0.228883
v -0.579769 0.021022 -0.228883
v -0.599775 0.620186 0.228883
v -0.579769 0.620186 0.228883
v -0.599775 0.620186 -0.228883
v -0.579769 0.620186 -0.228883
v -0.599775 -0.000000 -0.249905
v -0.599775 0.000000 0.249905
v -0.579769 0.000000 0.249905
v -0.579769 -0.000000 -0.249905
v -0.599775 0.641208 -0.249905
v -0.599775 0.641208 0.249905
v -0.579769 0.641208 0.249905
v -0.579769 0.641208 -0.249905
v 0.599775 0.021022 0.228883
v 0.579769 0.021022 0.228883
v 0.599775 0.021022 -0.228883
v 0.579769 0.021022 -0.228883
v 0.599775 0.620186 0.228883
v 0.579769 0.620186 0.228883
v 0.599775 0.620186 -0.228883
v 0.579769 0.620186 -0.228883
v 0.599775 -0.000000 -0.249905
v 0.599775 0.000000 0.249905
v 0.579769 0.000000 0.249905
v 0.579769 -0.000000 -0.249905
v 0.599775 0.641208 -0.249905
v 0.599775 0.641208 0.249905
v 0.579769 0.641208 0.249905
v 0.579769 0.641208 -0.249905
v -0.584751 0.734095 0.239500
v 0.584751 0.734095 0.239500
v -0.582910 0.732254 -0.249926
v 0.582910 0.732254 -0.249926
v -0.584751 0.656418 0.239500
v 0.584751 0.656418 0.239500
v -0.582910 0.658260 -0.249926
v 0.582910 0.658260 -0.249926
v 0.600656 0.750000 -0.249926
v -0.600656 0.750000 -0.249926
v 0.600656 0.640513 -0.249926
v -0.600656 0.640513 -0.249926
v 0.582910 0.732254 -0.245265
v -0.582910 0.732254 -0.245265
v 0.582910 0.658260 -0.245265
v -0.582910 0.658260 -0.245265
v -0.600656 0.750000 0.249774
v 0.600656 0.750000 0.249774
v -0.600656 0.640513 0.249774
v 0.600656 0.640513 0.249774
v -0.595152 0.744496 0.249774
v 0.595152 0.744496 0.249774
v -0.595152 0.646017 0.249774
v 0.595152 0.646017 0.249774
v -0.332149 0.734095 -0.241961
v 0.332149 0.734095 -0.241961
v -0.332149 0.656418 -0.241961
v 0.332149 0.656418 -0.241961
v -0.584751 0.734095 0.237905
v 0.584751 0.734095 0.237905
v -0.584751 0.656418 0.237905
v 0.584751 0.656418 0.237905
v -0.332149 0.734095 0.237905
v 0.332149 0.734095 0.237905
v -0.332149 0.656418 0.237905
v 0.332149 0.656418 0.237905
v -0.584751 0.734095 -0.237054
v 0.584751 0.734095 -0.237054
v -0.584751 0.656418 -0.237054
v 0.584751 0.656418 -0.237054
vn -0.0000 -0.0000 -1.0000
vn -0.0000 -0.0000 1.0000
vn -0.0000 -1.0000 -0.0000
vn -0.0000 1.0000 -0.0000
vn -1.0000 -0.0000 -0.0000
vn 1.0000 -0.0000 -0.0000
vn -0.0000 -0.7028 0.7114
vn -0.0000 0.7028 0.7114
vn -0.7028 -0.0000 0.7114
vn 0.7028 -0.0000 0.7114
vt 0.568726 0.003823
vt 0.579430 0.003823
vt 0.579429 0.594276
vt 0.568726 0.594276
vt 0.600815 0.594276
vt 0.590112 0.594276
vt 0.590112 0.003823
vt 0.600815 0.003823
vt 0.611498 0.003823
vt 0.611498 0.594276
vt 0.654291 0.594277
vt 0.643588 0.594277
vt 0.643588 0.003823
vt 0.654291 0.003823
vt 0.664973 0.003823
vt 0.675677 0.003823
vt 0.675677 0.594277
vt 0.664973 0.594277
vt 0.622202 0.594277
vt 0.611498 0.594277
vt 0.622202 0.003823
vt 0.632884 0.003823
vt 0.643587 0.003823
vt 0.643588 0.594277
vt 0.632884 0.594277
vt 0.905374 0.258206
vt 0.905374 0.003823
vt 0.915556 0.003823
vt 0.915556 0.258206
vt 0.978718 0.014522
vt 0.978718 0.247507
vt 0.968536 0.247507
vt 0.968536 0.014522
vt 0.842729 0.014522
vt 0.842729 0.319472
vt 0.832547 0.319472
vt 0.832547 0.014522
vt 0.811665 0.003823
vt 0.821848 0.003823
vt 0.821848 0.330172
vt 0.811665 0.330172
vt 0.738321 0.003823
vt 0.748504 0.003823
vt 0.748504 0.330172
vt 0.738321 0.330172
vt 0.894675 0.247507
vt 0.894675 0.014522
vt 0.926256 0.014522
vt 0.926256 0.247507
vt 0.957837 0.258206
vt 0.957837 0.003823
vt 0.978718 0.247507
vt 0.978718 0.014522
vt 0.989417 0.003823
vt 0.989417 0.258206
vt 0.800966 0.319472
vt 0.800966 0.014522
vt 0.759203 0.014522
vt 0.759203 0.319472
vt 0.727622 0.319472
vt 0.727622 0.014522
vt 0.717440 0.319472
vt 0.717440 0.014522
vt 0.884493 0.247507
vt 0.884492 0.014522
vt 0.852912 0.258206
vt 0.842729 0.258206
vt 0.842729 0.003823
vt 0.852912 0.003823
vt 0.936955 0.014522
vt 0.947137 0.014522
vt 0.947137 0.247507
vt 0.936955 0.247507
vt 0.686376 0.014522
vt 0.696558 0.014522
vt 0.696558 0.319472
vt 0.686376 0.319472
vt 0.717440 0.003823
vt 0.717440 0.330172
vt 0.707258 0.330172
vt 0.707258 0.003823
vt 0.769385 0.003823
vt 0.769385 0.330172
vt 0.759203 0.330172
vt 0.759203 0.003823
vt 0.863611 0.247507
vt 0.863611 0.014522
vt 0.873793 0.014522
vt 0.884493 0.003823
vt 0.884493 0.258206
vt 0.873793 0.247507
vt 0.957837 0.258206
vt 0.926256 0.258206
vt 0.926256 0.003823
vt 0.675677 0.330172
vt 0.790267 0.014522
vt 0.800966 0.003823
vt 0.800966 0.330172
vt 0.790267 0.319472
vt 0.780085 0.319472
vt 0.780085 0.014522
vt 0.126617 0.487456
vt 0.126617 0.908251
vt 0.008092 0.908251
vt 0.008092 0.487456
vt 0.126617 0.455241
vt 0.008092 0.455241
vt 0.008092 0.034446
vt 0.126617 0.034446
vt 0.126617 0.002230
vt 0.008092 0.002230
vt 0.565080 0.409844
vt 0.563299 0.407178
vt 0.562950 0.005901
vt 0.565080 0.003895
vt 0.002139 0.487456
vt 0.002139 0.908251
vt 0.002139 0.034446
vt 0.002139 0.455241
vt 0.002139 0.002230
vt 0.531459 0.005010
vt 0.531808 0.406287
vt 0.529678 0.002344
vt 0.529678 0.408294
vt 0.128464 0.908251
vt 0.128464 0.487456
vt 0.128464 0.455241
vt 0.128464 0.034446
vt 0.128464 0.002230
vt 0.132719 0.908251
vt 0.132719 0.487456
vt 0.132719 0.455241
vt 0.132719 0.034446
vt 0.132719 0.002230
vt 0.721494 0.740599
vt 0.680748 0.740599
vt 0.680748 0.608093
vt 0.721494 0.608093
vt 0.680748 0.992320
vt 0.640001 0.992320
vt 0.640001 0.859814
vt 0.680748 0.859814
vt 0.640001 0.608093
vt 0.721494 0.992320
vt 0.680748 0.992320
vt 0.317245 0.002344
vt 0.499905 0.002344
vt 0.499905 0.032117
vt 0.317245 0.032117
vt 0.134585 0.032117
vt 0.317245 0.032117
vt 0.317245 0.480380
vt 0.134585 0.480380
vt 0.134585 0.002344
vt 0.317245 0.002344
vt 0.317245 0.480380
vt 0.499905 0.480380
vt 0.529678 0.002344
vt 0.529678 0.450607
vt 0.499905 0.450607
vt 0.499905 0.002344
s 1
usemtl FUNITURE_037_MAT
f 35/57/8 36/58/8 40/59/8 39/60/8
f 37/61/9 38/62/9 34/63/9 33/64/9
f 35/65/10 39/66/10 37/61/10 33/64/10
f 40/59/11 36/58/11 34/63/11 38/62/11
f 43/67/8 44/68/8 48/69/8 47/70/8
f 45/71/9 46/72/9 42/73/9 41/74/9
f 43/67/10 47/70/10 45/71/10 41/74/10
f 51/75/8 52/76/8 56/65/8 55/77/8
f 53/78/9 54/79/9 50/80/9 49/81/9
f 51/75/10 55/77/10 53/78/10 49/81/10
f 66/82/10 65/83/10 68/84/10 67/85/10
f 64/86/10 62/87/10 61/88/10 63/89/10
f 60/90/9 64/91/9 63/92/9 59/93/9
f 68/94/8 65/95/8 69/96/8 72/97/8
f 66/98/9 67/99/9 71/100/9 70/101/9
f 57/102/12 59/103/12 65/83/12 66/82/12
f 60/104/13 58/105/13 67/85/13 68/84/13
f 63/89/12 61/88/12 70/106/12 69/107/12
f 62/108/13 64/109/13 72/110/13 71/111/13
f 64/112/13 60/113/13 68/94/13 72/97/13
f 58/114/13 62/115/13 71/100/13 67/99/13
f 61/116/12 57/117/12 66/98/12 70/101/12
f 59/93/12 63/92/12 69/96/12 65/95/12
f 62/118/8 58/119/8 57/117/8 61/116/8
f 58/120/11 60/121/11 59/103/11 57/102/11
f 82/122/10 83/123/10 84/124/10 81/125/10
f 80/126/10 79/127/10 77/128/10 78/129/10
f 76/130/9 75/131/9 79/132/9 80/133/9
f 84/134/8 88/135/8 85/136/8 81/137/8
f 82/138/9 86/139/9 87/140/9 83/141/9
f 73/142/13 82/122/13 81/125/13 75/143/13
f 76/144/12 84/145/12 83/146/12 74/147/12
f 79/127/13 85/107/13 86/148/13 77/128/13
f 78/129/12 87/149/12 88/150/12 80/126/12
f 80/133/12 88/151/12 84/72/12 76/130/12
f 74/152/12 83/153/12 87/154/12 78/155/12
f 77/156/13 86/139/13 82/138/13 73/157/13
f 75/131/13 81/137/13 85/136/13 79/132/13
f 78/155/8 77/156/8 73/157/8 74/152/8
f 74/147/11 73/142/11 75/143/11 76/144/11
f 105/158/11 106/159/11 97/160/11 98/161/11
f 107/162/10 100/163/10 99/164/10 108/165/10
f 106/166/13 108/165/13 99/164/13 97/167/13
f 98/161/12 100/163/12 107/162/12 105/158/12
f 95/168/11 104/169/11 103/170/11 96/171/11
f 91/172/8 98/161/8 97/160/8 92/173/8
f 96/174/8 99/164/8 100/163/8 95/175/8
f 92/176/8 97/167/8 99/164/8 96/174/8
f 95/175/8 100/163/8 98/161/8 91/172/8
f 101/177/8 103/170/8 104/169/8 102/178/8
f 96/171/12 103/170/12 101/177/12 92/179/12
f 92/179/10 101/177/10 102/178/10 91/180/10
f 91/180/13 102/178/13 104/169/13 95/168/13
f 110/181/9 106/159/9 105/158/9 109/182/9
f 111/183/9 107/162/9 108/165/9 112/184/9
f 112/184/9 108/165/9 106/166/9 110/185/9
f 109/182/9 105/158/9 107/162/9 111/183/9
f 90/186/14 110/181/14 109/182/14 89/187/14
f 93/188/15 111/183/15 112/184/15 94/189/15
f 94/189/16 112/184/16 110/185/16 90/190/16
f 89/187/17 109/182/17 111/183/17 93/188/17
f 122/191/9 124/192/9 120/193/9 118/194/9
f 117/195/9 119/196/9 123/197/9 121/198/9
f 115/199/13 113/193/13 121/198/13 123/197/13
f 114/200/12 116/201/12 124/192/12 122/191/12
f 90/202/12 126/203/12 128/204/12 94/205/12
f 89/206/10 125/207/10 126/208/10 90/209/10
f 93/210/13 127/211/13 125/207/13 89/206/13
f 93/212/11 94/205/11 128/204/11 127/213/11
f 126/214/9 125/215/9 127/216/9 128/217/9
